<svg xmlns="http://www.w3.org/2000/svg" viewBox="0 0 32 32" fill="none">
  <!-- Background circle -->
  <circle cx="16" cy="16" r="15" fill="#0066FF" stroke="#ffffff" stroke-width="1"/>
  
  <!-- Graduation cap -->
  <path d="M8 14L16 10L24 14V18C24 18 20 16 16 16C12 16 8 18 8 18V14Z" fill="#ffffff"/>
  
  <!-- Cap tassel -->
  <circle cx="24" cy="14" r="1.5" fill="#ffffff"/>
  <path d="M24 14L24 10" stroke="#ffffff" stroke-width="1"/>
  
  <!-- Dollar sign -->
  <text x="16" y="22" text-anchor="middle" font-family="Arial, sans-serif" font-size="8" font-weight="bold" fill="#ffffff">$</text>
  
  <!-- AI brain waves -->
  <path d="M6 20Q8 18 10 20T14 20T18 20T22 20" stroke="#ffffff" stroke-width="1" fill="none" opacity="0.7"/>
  <path d="M6 22Q8 20 10 22T14 22T18 22T22 22" stroke="#ffffff" stroke-width="1" fill="none" opacity="0.5"/>
  <path d="M6 24Q8 22 10 24T14 24T18 24T22 24" stroke="#ffffff" stroke-width="1" fill="none" opacity="0.3"/>
</svg>